<mxfile host="app.diagrams.net" agent="Mozilla/5.0 (X11; Linux x86_64; rv:131.0) Gecko/20100101 Firefox/131.0" version="24.8.6">
  <diagram id="R2lEEEUBdFMjLlhIrx00" name="Page-1">
    <mxGraphModel dx="1366" dy="684" grid="1" gridSize="10" guides="1" tooltips="1" connect="1" arrows="1" fold="1" page="1" pageScale="1" pageWidth="850" pageHeight="1100" math="0" shadow="0" extFonts="Permanent Marker^https://fonts.googleapis.com/css?family=Permanent+Marker">
      <root>
        <mxCell id="0" />
        <mxCell id="1" parent="0" />
        <mxCell id="EpN7QXotQVh5cfstRT2r-7" value="" style="group" vertex="1" connectable="0" parent="1">
          <mxGeometry x="200" y="90" width="140" height="150" as="geometry" />
        </mxCell>
        <mxCell id="EpN7QXotQVh5cfstRT2r-1" value="DeveloperName" style="swimlane;fontStyle=0;childLayout=stackLayout;horizontal=1;startSize=30;horizontalStack=0;resizeParent=1;resizeParentMax=0;resizeLast=0;collapsible=1;marginBottom=0;whiteSpace=wrap;html=1;" vertex="1" parent="EpN7QXotQVh5cfstRT2r-7">
          <mxGeometry y="30" width="140" height="120" as="geometry" />
        </mxCell>
        <mxCell id="EpN7QXotQVh5cfstRT2r-2" value="Location" style="text;strokeColor=none;fillColor=none;align=left;verticalAlign=middle;spacingLeft=4;spacingRight=4;overflow=hidden;points=[[0,0.5],[1,0.5]];portConstraint=eastwest;rotatable=0;whiteSpace=wrap;html=1;" vertex="1" parent="EpN7QXotQVh5cfstRT2r-1">
          <mxGeometry y="30" width="140" height="30" as="geometry" />
        </mxCell>
        <mxCell id="EpN7QXotQVh5cfstRT2r-3" value="Avatar" style="text;strokeColor=none;fillColor=none;align=left;verticalAlign=middle;spacingLeft=4;spacingRight=4;overflow=hidden;points=[[0,0.5],[1,0.5]];portConstraint=eastwest;rotatable=0;whiteSpace=wrap;html=1;" vertex="1" parent="EpN7QXotQVh5cfstRT2r-1">
          <mxGeometry y="60" width="140" height="30" as="geometry" />
        </mxCell>
        <mxCell id="EpN7QXotQVh5cfstRT2r-4" value="WebsiteURL" style="text;strokeColor=none;fillColor=none;align=left;verticalAlign=middle;spacingLeft=4;spacingRight=4;overflow=hidden;points=[[0,0.5],[1,0.5]];portConstraint=eastwest;rotatable=0;whiteSpace=wrap;html=1;" vertex="1" parent="EpN7QXotQVh5cfstRT2r-1">
          <mxGeometry y="90" width="140" height="30" as="geometry" />
        </mxCell>
        <mxCell id="EpN7QXotQVh5cfstRT2r-6" value="&lt;div align=&quot;left&quot;&gt;Developer&lt;/div&gt;" style="text;html=1;align=left;verticalAlign=middle;resizable=0;points=[];autosize=1;strokeColor=none;fillColor=none;" vertex="1" parent="EpN7QXotQVh5cfstRT2r-7">
          <mxGeometry width="80" height="30" as="geometry" />
        </mxCell>
        <mxCell id="EpN7QXotQVh5cfstRT2r-8" value="" style="group;rounded=0;" vertex="1" connectable="0" parent="1">
          <mxGeometry x="200" y="330" width="140" height="150" as="geometry" />
        </mxCell>
        <mxCell id="EpN7QXotQVh5cfstRT2r-9" value="&lt;div&gt;GameName&lt;/div&gt;&lt;div&gt;ReleaseDate&lt;br&gt;&lt;/div&gt;" style="swimlane;fontStyle=0;childLayout=stackLayout;horizontal=1;startSize=40;horizontalStack=0;resizeParent=1;resizeParentMax=0;resizeLast=0;collapsible=1;marginBottom=0;whiteSpace=wrap;html=1;rounded=0;" vertex="1" parent="EpN7QXotQVh5cfstRT2r-8">
          <mxGeometry y="30" width="140" height="100" as="geometry" />
        </mxCell>
        <mxCell id="EpN7QXotQVh5cfstRT2r-10" value="Description" style="text;strokeColor=none;fillColor=none;align=left;verticalAlign=middle;spacingLeft=4;spacingRight=4;overflow=hidden;points=[[0,0.5],[1,0.5]];portConstraint=eastwest;rotatable=0;whiteSpace=wrap;html=1;" vertex="1" parent="EpN7QXotQVh5cfstRT2r-9">
          <mxGeometry y="40" width="140" height="30" as="geometry" />
        </mxCell>
        <mxCell id="EpN7QXotQVh5cfstRT2r-11" value="Price" style="text;strokeColor=none;fillColor=none;align=left;verticalAlign=middle;spacingLeft=4;spacingRight=4;overflow=hidden;points=[[0,0.5],[1,0.5]];portConstraint=eastwest;rotatable=0;whiteSpace=wrap;html=1;" vertex="1" parent="EpN7QXotQVh5cfstRT2r-9">
          <mxGeometry y="70" width="140" height="30" as="geometry" />
        </mxCell>
        <mxCell id="EpN7QXotQVh5cfstRT2r-13" value="&lt;div align=&quot;left&quot;&gt;Game&lt;/div&gt;" style="text;html=1;align=left;verticalAlign=middle;resizable=0;points=[];autosize=1;strokeColor=none;fillColor=none;" vertex="1" parent="EpN7QXotQVh5cfstRT2r-8">
          <mxGeometry width="60" height="30" as="geometry" />
        </mxCell>
        <mxCell id="EpN7QXotQVh5cfstRT2r-14" value="" style="group" vertex="1" connectable="0" parent="1">
          <mxGeometry x="480" y="330" width="140" height="150" as="geometry" />
        </mxCell>
        <mxCell id="EpN7QXotQVh5cfstRT2r-15" value="Email" style="swimlane;fontStyle=0;childLayout=stackLayout;horizontal=1;startSize=30;horizontalStack=0;resizeParent=1;resizeParentMax=0;resizeLast=0;collapsible=1;marginBottom=0;whiteSpace=wrap;html=1;" vertex="1" parent="EpN7QXotQVh5cfstRT2r-14">
          <mxGeometry y="30" width="140" height="180" as="geometry" />
        </mxCell>
        <mxCell id="EpN7QXotQVh5cfstRT2r-16" value="PublicName" style="text;strokeColor=none;fillColor=none;align=left;verticalAlign=middle;spacingLeft=4;spacingRight=4;overflow=hidden;points=[[0,0.5],[1,0.5]];portConstraint=eastwest;rotatable=0;whiteSpace=wrap;html=1;" vertex="1" parent="EpN7QXotQVh5cfstRT2r-15">
          <mxGeometry y="30" width="140" height="30" as="geometry" />
        </mxCell>
        <mxCell id="EpN7QXotQVh5cfstRT2r-17" value="Description" style="text;strokeColor=none;fillColor=none;align=left;verticalAlign=middle;spacingLeft=4;spacingRight=4;overflow=hidden;points=[[0,0.5],[1,0.5]];portConstraint=eastwest;rotatable=0;whiteSpace=wrap;html=1;" vertex="1" parent="EpN7QXotQVh5cfstRT2r-15">
          <mxGeometry y="60" width="140" height="30" as="geometry" />
        </mxCell>
        <mxCell id="EpN7QXotQVh5cfstRT2r-31" value="Country" style="text;strokeColor=none;fillColor=none;align=left;verticalAlign=middle;spacingLeft=4;spacingRight=4;overflow=hidden;points=[[0,0.5],[1,0.5]];portConstraint=eastwest;rotatable=0;whiteSpace=wrap;html=1;" vertex="1" parent="EpN7QXotQVh5cfstRT2r-15">
          <mxGeometry y="90" width="140" height="30" as="geometry" />
        </mxCell>
        <mxCell id="EpN7QXotQVh5cfstRT2r-32" value="City" style="text;strokeColor=none;fillColor=none;align=left;verticalAlign=middle;spacingLeft=4;spacingRight=4;overflow=hidden;points=[[0,0.5],[1,0.5]];portConstraint=eastwest;rotatable=0;whiteSpace=wrap;html=1;" vertex="1" parent="EpN7QXotQVh5cfstRT2r-15">
          <mxGeometry y="120" width="140" height="30" as="geometry" />
        </mxCell>
        <mxCell id="EpN7QXotQVh5cfstRT2r-18" value="AvatarURL" style="text;strokeColor=none;fillColor=none;align=left;verticalAlign=middle;spacingLeft=4;spacingRight=4;overflow=hidden;points=[[0,0.5],[1,0.5]];portConstraint=eastwest;rotatable=0;whiteSpace=wrap;html=1;" vertex="1" parent="EpN7QXotQVh5cfstRT2r-15">
          <mxGeometry y="150" width="140" height="30" as="geometry" />
        </mxCell>
        <mxCell id="EpN7QXotQVh5cfstRT2r-19" value="Player" style="text;html=1;align=left;verticalAlign=middle;resizable=0;points=[];autosize=1;strokeColor=none;fillColor=none;" vertex="1" parent="EpN7QXotQVh5cfstRT2r-14">
          <mxGeometry width="60" height="30" as="geometry" />
        </mxCell>
        <mxCell id="EpN7QXotQVh5cfstRT2r-25" style="edgeStyle=orthogonalEdgeStyle;rounded=0;orthogonalLoop=1;jettySize=auto;html=1;exitX=0.75;exitY=0;exitDx=0;exitDy=0;entryX=0.744;entryY=1.029;entryDx=0;entryDy=0;entryPerimeter=0;startArrow=ERzeroToMany;startFill=0;endArrow=ERmandOne;endFill=0;dashed=1;" edge="1" parent="1" source="EpN7QXotQVh5cfstRT2r-9" target="EpN7QXotQVh5cfstRT2r-4">
          <mxGeometry relative="1" as="geometry" />
        </mxCell>
        <mxCell id="EpN7QXotQVh5cfstRT2r-33" style="edgeStyle=orthogonalEdgeStyle;rounded=0;orthogonalLoop=1;jettySize=auto;html=1;exitX=1;exitY=0.75;exitDx=0;exitDy=0;entryX=0;entryY=0.5;entryDx=0;entryDy=0;dashed=1;startArrow=ERzeroToMany;startFill=0;endArrow=ERzeroToMany;endFill=0;" edge="1" parent="1" source="EpN7QXotQVh5cfstRT2r-9" target="EpN7QXotQVh5cfstRT2r-17">
          <mxGeometry relative="1" as="geometry" />
        </mxCell>
        <mxCell id="EpN7QXotQVh5cfstRT2r-34" value="" style="group;rounded=0;" vertex="1" connectable="0" parent="1">
          <mxGeometry x="200" y="530" width="170" height="150" as="geometry" />
        </mxCell>
        <mxCell id="EpN7QXotQVh5cfstRT2r-35" value="&lt;div&gt;DeveloperName&lt;/div&gt;&lt;div&gt;AdditionalAgreementName&lt;br&gt;&lt;/div&gt;" style="swimlane;fontStyle=0;childLayout=stackLayout;horizontal=1;startSize=40;horizontalStack=0;resizeParent=1;resizeParentMax=0;resizeLast=0;collapsible=1;marginBottom=0;whiteSpace=wrap;html=1;rounded=1;" vertex="1" parent="EpN7QXotQVh5cfstRT2r-34">
          <mxGeometry y="30" width="170" height="70" as="geometry" />
        </mxCell>
        <mxCell id="EpN7QXotQVh5cfstRT2r-36" value="DocumentURL" style="text;strokeColor=none;fillColor=none;align=left;verticalAlign=middle;spacingLeft=4;spacingRight=4;overflow=hidden;points=[[0,0.5],[1,0.5]];portConstraint=eastwest;rotatable=0;whiteSpace=wrap;html=1;" vertex="1" parent="EpN7QXotQVh5cfstRT2r-35">
          <mxGeometry y="40" width="170" height="30" as="geometry" />
        </mxCell>
        <mxCell id="EpN7QXotQVh5cfstRT2r-38" value="AdditionalAgreement" style="text;html=1;align=left;verticalAlign=middle;resizable=0;points=[];autosize=1;strokeColor=none;fillColor=none;" vertex="1" parent="EpN7QXotQVh5cfstRT2r-34">
          <mxGeometry width="130" height="30" as="geometry" />
        </mxCell>
        <mxCell id="EpN7QXotQVh5cfstRT2r-39" style="edgeStyle=orthogonalEdgeStyle;rounded=0;orthogonalLoop=1;jettySize=auto;html=1;exitX=0;exitY=0.25;exitDx=0;exitDy=0;entryX=0;entryY=0.151;entryDx=0;entryDy=0;entryPerimeter=0;startArrow=ERzeroToMany;startFill=0;endArrow=ERmandOne;endFill=0;" edge="1" parent="1" source="EpN7QXotQVh5cfstRT2r-35" target="EpN7QXotQVh5cfstRT2r-1">
          <mxGeometry relative="1" as="geometry" />
        </mxCell>
        <mxCell id="EpN7QXotQVh5cfstRT2r-40" style="edgeStyle=orthogonalEdgeStyle;rounded=0;orthogonalLoop=1;jettySize=auto;html=1;exitX=0.75;exitY=0;exitDx=0;exitDy=0;entryX=0.911;entryY=1.006;entryDx=0;entryDy=0;entryPerimeter=0;dashed=1;startArrow=ERzeroToMany;startFill=0;endArrow=ERzeroToMany;endFill=0;" edge="1" parent="1" source="EpN7QXotQVh5cfstRT2r-35" target="EpN7QXotQVh5cfstRT2r-11">
          <mxGeometry relative="1" as="geometry" />
        </mxCell>
      </root>
    </mxGraphModel>
  </diagram>
</mxfile>
